<svg xmlns="http://www.w3.org/2000/svg" xmlns:xlink="http://www.w3.org/1999/xlink" width="250" zoomAndPan="magnify" viewBox="0 0 187.5 74.999997" height="100" preserveAspectRatio="xMidYMid meet" version="1.0"><defs><g><g id="id1"/></g><clipPath id="id2"><path d="M 26.210938 7.75 L 67.5 7.75 L 67.5 50.816406 L 26.210938 50.816406 Z M 26.210938 7.75 " clip-rule="nonzero"/></clipPath><clipPath id="id3"><path d="M 7.648438 25 L 48.488281 25 L 48.488281 67.601562 L 7.648438 67.601562 Z M 7.648438 25 " clip-rule="nonzero"/></clipPath><clipPath id="id4"><path d="M 7.5 7.601562 L 56 7.601562 L 56 56 L 7.5 56 Z M 7.5 7.601562 " clip-rule="nonzero"/></clipPath><clipPath id="id5"><path d="M 55.171875 45.621094 L 67.5 45.621094 L 67.5 58.242188 L 55.171875 58.242188 Z M 55.171875 45.621094 " clip-rule="nonzero"/></clipPath><clipPath id="id6"><path d="M 45.519531 55.273438 L 58 55.273438 L 58 67.601562 L 45.519531 67.601562 Z M 45.519531 55.273438 " clip-rule="nonzero"/></clipPath></defs><path fill="rgb(97.24884%, 65.098572%, 74.508667%)" d="M 28.039062 39.972656 L 56.628906 48.898438 L 66.300781 17.929688 L 37.714844 9 L 28.039062 39.972656 " fill-opacity="1" fill-rule="nonzero"/><g clip-path="url(#id2)"><path fill="rgb(93.728638%, 16.468811%, 59.609985%)" d="M 64.066406 26.320312 C 63.941406 26.320312 63.816406 26.308594 63.691406 26.273438 C 63.382812 26.171875 63.117188 25.945312 62.96875 25.660156 C 62.808594 25.359375 62.78125 25.023438 62.882812 24.695312 C 63.082031 24.0625 63.792969 23.6875 64.441406 23.886719 C 64.753906 23.984375 65.015625 24.199219 65.175781 24.5 C 65.328125 24.796875 65.367188 25.136719 65.265625 25.449219 C 65.089844 25.96875 64.617188 26.320312 64.066406 26.320312 Z M 32.507812 26.917969 C 32.382812 26.917969 32.257812 26.90625 32.132812 26.871094 C 31.808594 26.769531 31.558594 26.542969 31.394531 26.257812 C 31.246094 25.957031 31.210938 25.621094 31.308594 25.308594 L 36.523438 8.625 C 36.726562 7.976562 37.4375 7.601562 38.085938 7.800781 L 66.675781 16.738281 C 66.988281 16.835938 67.25 17.0625 67.410156 17.347656 C 67.5625 17.636719 67.589844 17.984375 67.5 18.296875 L 66.75 20.679688 C 66.550781 21.328125 65.839844 21.703125 65.191406 21.503906 C 64.867188 21.40625 64.601562 21.179688 64.457031 20.890625 C 64.292969 20.59375 64.265625 20.257812 64.367188 19.929688 L 64.742188 18.746094 L 38.535156 10.558594 L 33.695312 26.046875 C 33.53125 26.570312 33.054688 26.917969 32.507812 26.917969 Z M 31.023438 31.6875 C 30.886719 31.6875 30.761719 31.675781 30.648438 31.636719 C 29.988281 31.421875 29.625 30.722656 29.824219 30.066406 C 30.023438 29.429688 30.734375 29.042969 31.386719 29.253906 C 32.046875 29.453125 32.410156 30.152344 32.207031 30.816406 C 32.046875 31.335938 31.558594 31.6875 31.023438 31.6875 Z M 56.628906 50.144531 C 56.503906 50.144531 56.378906 50.132812 56.253906 50.09375 L 27.667969 41.160156 C 27.351562 41.058594 27.089844 40.847656 26.929688 40.546875 C 26.777344 40.246094 26.753906 39.910156 26.855469 39.597656 L 28.339844 34.832031 C 28.339844 34.832031 28.339844 34.832031 28.339844 34.820312 C 28.550781 34.183594 29.261719 33.808594 29.898438 34.019531 C 30.210938 34.121094 30.472656 34.332031 30.636719 34.632812 C 30.785156 34.917969 30.820312 35.253906 30.722656 35.582031 L 29.601562 39.148438 L 55.804688 47.335938 L 61.382812 29.464844 C 61.582031 28.816406 62.292969 28.441406 62.957031 28.640625 C 63.605469 28.855469 63.980469 29.550781 63.769531 30.214844 L 57.816406 49.269531 C 57.730469 49.582031 57.503906 49.847656 57.203125 50.003906 C 57.03125 50.09375 56.828125 50.144531 56.628906 50.144531 " fill-opacity="1" fill-rule="nonzero"/></g><path fill="rgb(67.449951%, 87.449646%, 53.729248%)" d="M 8.894531 57.441406 L 37.484375 66.371094 L 47.160156 35.402344 L 18.570312 26.472656 L 8.894531 57.441406 " fill-opacity="1" fill-rule="nonzero"/><g clip-path="url(#id3)"><path fill="rgb(21.569824%, 71.759033%, 40.779114%)" d="M 10.460938 56.621094 L 36.667969 64.808594 L 45.59375 36.21875 L 19.386719 28.03125 Z M 37.484375 67.617188 C 37.359375 67.617188 37.234375 67.601562 37.113281 67.5625 L 8.523438 58.632812 C 8.207031 58.535156 7.945312 58.316406 7.789062 58.023438 C 7.636719 57.726562 7.609375 57.382812 7.707031 57.070312 L 17.378906 26.097656 C 17.582031 25.441406 18.28125 25.078125 18.945312 25.28125 L 47.53125 34.207031 C 48.1875 34.414062 48.554688 35.113281 48.347656 35.773438 L 38.675781 66.742188 C 38.578125 67.058594 38.359375 67.324219 38.066406 67.476562 C 37.886719 67.570312 37.683594 67.617188 37.484375 67.617188 " fill-opacity="1" fill-rule="nonzero"/></g><path fill="rgb(98.429871%, 82.348633%, 56.079102%)" d="M 12.640625 52.660156 L 45.5 52.660156 L 45.5 21.699219 C 45.5 20.878906 44.832031 20.214844 44.015625 20.214844 L 12.640625 20.214844 L 12.640625 52.660156 " fill-opacity="1" fill-rule="nonzero"/><path fill="rgb(97.648621%, 65.879822%, 7.449341%)" d="M 13.886719 51.414062 L 44.25 51.414062 L 44.25 22.710938 C 44.25 22.023438 43.691406 21.460938 43.003906 21.460938 L 13.886719 21.460938 Z M 45.5 53.910156 L 12.640625 53.910156 C 11.949219 53.910156 11.394531 53.351562 11.394531 52.660156 L 11.394531 20.214844 C 11.394531 19.523438 11.949219 18.964844 12.640625 18.964844 L 43.003906 18.964844 C 45.066406 18.964844 46.746094 20.644531 46.746094 22.710938 L 46.746094 52.660156 C 46.746094 53.351562 46.1875 53.910156 45.5 53.910156 " fill-opacity="1" fill-rule="nonzero"/><path fill="rgb(63.919067%, 88.238525%, 94.119263%)" d="M 59.34375 47.738281 L 60.0625 52.6875 L 49.40625 49.15625 L 41.601562 48.449219 C 39.960938 48 38.488281 47.457031 37.121094 46.828125 L 41.539062 42.039062 L 59.34375 47.738281 " fill-opacity="1" fill-rule="nonzero"/><path fill="rgb(35.688782%, 70.199585%, 90.589905%)" d="M 41.824219 47.214844 L 49.519531 47.914062 C 49.617188 47.921875 49.710938 47.941406 49.800781 47.972656 L 58.539062 50.863281 L 58.222656 48.6875 L 41.917969 43.46875 L 39.242188 46.367188 C 40.078125 46.6875 40.933594 46.96875 41.824219 47.214844 Z M 60.0625 53.933594 C 59.933594 53.933594 59.800781 53.914062 59.671875 53.867188 L 49.152344 50.386719 L 41.488281 49.6875 C 41.414062 49.683594 41.34375 49.667969 41.273438 49.652344 C 39.632812 49.203125 38.105469 48.652344 36.601562 47.964844 C 36.234375 47.796875 35.972656 47.464844 35.894531 47.074219 C 35.816406 46.679688 35.929688 46.273438 36.203125 45.980469 L 40.621094 41.191406 C 40.953125 40.835938 41.457031 40.707031 41.921875 40.851562 L 59.722656 46.546875 C 60.179688 46.691406 60.511719 47.085938 60.582031 47.558594 L 61.300781 52.503906 C 61.359375 52.933594 61.199219 53.363281 60.863281 53.644531 C 60.636719 53.832031 60.355469 53.933594 60.0625 53.933594 " fill-opacity="1" fill-rule="nonzero"/><path fill="rgb(62.748718%, 67.449951%, 87.059021%)" d="M 32.605469 9 L 54.257812 28.261719 L 30.167969 54.359375 L 8.894531 33.957031 L 32.605469 9 " fill-opacity="1" fill-rule="nonzero"/><g clip-path="url(#id4)"><path fill="rgb(23.139954%, 33.729553%, 68.629456%)" d="M 10.65625 33.917969 L 30.113281 52.578125 L 52.476562 28.347656 L 32.679688 10.734375 Z M 30.167969 55.605469 C 29.84375 55.605469 29.535156 55.480469 29.300781 55.257812 L 8.03125 34.859375 C 7.539062 34.386719 7.519531 33.597656 7.992188 33.101562 L 31.703125 8.140625 C 32.167969 7.652344 32.933594 7.621094 33.4375 8.066406 L 55.085938 27.328125 C 55.335938 27.550781 55.488281 27.863281 55.503906 28.199219 C 55.519531 28.535156 55.398438 28.863281 55.171875 29.109375 L 31.082031 55.207031 C 30.855469 55.453125 30.539062 55.59375 30.203125 55.605469 C 30.191406 55.605469 30.179688 55.605469 30.167969 55.605469 " fill-opacity="1" fill-rule="nonzero"/></g><path fill="rgb(100%, 100%, 100%)" d="M 47.910156 59.171875 L 36.554688 23.683594 C 42.230469 29.359375 47.199219 34.332031 49.328125 42.140625 L 49.328125 49.234375 L 52.859375 59.890625 L 47.910156 59.171875 " fill-opacity="1" fill-rule="nonzero"/><path fill="rgb(35.688782%, 70.199585%, 90.589905%)" d="M 48.863281 58.050781 L 51.035156 58.363281 L 48.144531 49.628906 C 48.101562 49.5 48.082031 49.371094 48.082031 49.238281 L 48.082031 42.308594 C 46.488281 36.605469 43.273438 32.449219 39.339844 28.300781 Z M 52.859375 61.136719 C 52.796875 61.136719 52.738281 61.136719 52.679688 61.125 L 47.730469 60.40625 C 47.257812 60.335938 46.867188 60.007812 46.71875 59.550781 L 35.363281 24.066406 C 35.191406 23.515625 35.414062 22.917969 35.902344 22.621094 C 36.398438 22.320312 37.03125 22.394531 37.4375 22.804688 C 43.273438 28.640625 48.316406 33.683594 50.53125 41.808594 C 50.5625 41.914062 50.574219 42.027344 50.574219 42.140625 L 50.574219 49.035156 L 54.042969 59.5 C 54.179688 59.910156 54.09375 60.359375 53.816406 60.691406 C 53.574219 60.980469 53.222656 61.136719 52.859375 61.136719 " fill-opacity="1" fill-rule="nonzero"/><path fill="rgb(100%, 100%, 100%)" d="M 58.632812 54.835938 C 60.792969 56.988281 63.8125 57.464844 65.378906 55.898438 C 66.945312 54.332031 66.46875 51.3125 64.3125 49.15625 C 62.15625 47 59.136719 46.523438 57.570312 48.089844 C 56.003906 49.660156 56.480469 52.679688 58.632812 54.835938 " fill-opacity="1" fill-rule="nonzero"/><g clip-path="url(#id5)"><path fill="rgb(35.688782%, 70.199585%, 90.589905%)" d="M 59.980469 48.414062 C 59.371094 48.414062 58.832031 48.59375 58.453125 48.972656 C 57.820312 49.605469 57.859375 50.542969 57.9375 51.046875 C 58.097656 52.046875 58.671875 53.105469 59.519531 53.953125 C 61.15625 55.589844 63.433594 56.078125 64.496094 55.019531 C 65.128906 54.386719 65.085938 53.445312 65.007812 52.945312 C 64.851562 51.941406 64.277344 50.882812 63.429688 50.039062 C 62.382812 48.988281 61.066406 48.414062 59.980469 48.414062 Z M 62.957031 58.082031 C 61.21875 58.082031 59.308594 57.273438 57.753906 55.714844 C 56.523438 54.488281 55.714844 52.96875 55.476562 51.4375 C 55.210938 49.78125 55.65625 48.242188 56.6875 47.210938 C 58.777344 45.121094 62.511719 45.589844 65.195312 48.273438 C 66.425781 49.5 67.230469 51.019531 67.476562 52.554688 C 67.734375 54.207031 67.292969 55.75 66.257812 56.78125 C 65.382812 57.65625 64.214844 58.082031 62.957031 58.082031 " fill-opacity="1" fill-rule="nonzero"/></g><path fill="rgb(100%, 100%, 100%)" d="M 49.054688 64.414062 C 51.207031 66.570312 54.226562 67.050781 55.796875 65.480469 C 57.363281 63.914062 56.886719 60.894531 54.730469 58.738281 C 52.574219 56.582031 49.558594 56.105469 47.988281 57.675781 C 46.421875 59.242188 46.898438 62.261719 49.054688 64.414062 " fill-opacity="1" fill-rule="nonzero"/><g clip-path="url(#id6)"><path fill="rgb(35.688782%, 70.199585%, 90.589905%)" d="M 49.933594 63.535156 C 50.78125 64.378906 51.839844 64.957031 52.839844 65.113281 C 53.34375 65.191406 54.28125 65.230469 54.914062 64.597656 C 55.972656 63.535156 55.488281 61.261719 53.847656 59.621094 C 53.003906 58.777344 51.945312 58.199219 50.945312 58.042969 C 50.4375 57.960938 49.503906 57.925781 48.871094 58.554688 C 47.8125 59.617188 48.296875 61.894531 49.933594 63.535156 Z M 53.371094 67.648438 C 53.070312 67.648438 52.761719 67.628906 52.449219 67.578125 C 50.917969 67.335938 49.398438 66.527344 48.171875 65.296875 C 45.488281 62.613281 45.019531 58.878906 47.105469 56.789062 C 48.140625 55.757812 49.675781 55.3125 51.335938 55.578125 C 52.867188 55.816406 54.386719 56.628906 55.613281 57.859375 C 58.296875 60.539062 58.765625 64.277344 56.679688 66.363281 C 55.839844 67.199219 54.667969 67.648438 53.371094 67.648438 " fill-opacity="1" fill-rule="nonzero"/></g><path fill="rgb(44.309998%, 78.819275%, 80.778503%)" d="M 84.871094 21.820312 L 165.476562 21.820312 C 169.492188 21.820312 173.34375 23.417969 176.179688 26.265625 C 179.019531 29.109375 180.617188 32.96875 180.617188 36.992188 C 180.617188 41.015625 179.019531 44.875 176.179688 47.71875 C 173.34375 50.566406 169.492188 52.164062 165.476562 52.164062 L 84.871094 52.164062 C 76.511719 52.164062 69.734375 45.371094 69.734375 36.992188 C 69.734375 28.613281 76.511719 21.820312 84.871094 21.820312 " fill-opacity="0.9882" fill-rule="nonzero"/><g fill="rgb(13.328552%, 15.689087%, 19.219971%)" fill-opacity="1"><g transform="translate(74.578577, 44.492143)"><g><path d="M 14.078125 -3.65625 C 14.140625 -3.601562 14.171875 -3.535156 14.171875 -3.453125 C 14.171875 -3.378906 14.140625 -3.28125 14.078125 -3.15625 C 14.015625 -3.03125 13.910156 -2.863281 13.765625 -2.65625 C 13.628906 -2.445312 13.378906 -2.160156 13.015625 -1.796875 C 12.648438 -1.429688 12.253906 -1.117188 11.828125 -0.859375 C 11.398438 -0.597656 10.832031 -0.363281 10.125 -0.15625 C 9.414062 0.0390625 8.660156 0.140625 7.859375 0.140625 C 5.890625 0.140625 4.25 -0.546875 2.9375 -1.921875 C 1.625 -3.296875 0.96875 -5.09375 0.96875 -7.3125 C 0.96875 -9.539062 1.628906 -11.3125 2.953125 -12.625 C 4.285156 -13.945312 5.882812 -14.609375 7.75 -14.609375 C 9.832031 -14.609375 11.347656 -13.890625 12.296875 -12.453125 L 12.28125 -14.25 C 12.25 -14.414062 12.328125 -14.5 12.515625 -14.5 L 13.640625 -14.5 C 13.816406 -14.5 13.90625 -14.414062 13.90625 -14.25 L 13.90625 -9.84375 C 13.90625 -9.675781 13.816406 -9.59375 13.640625 -9.59375 L 12.375 -9.59375 C 12.207031 -9.59375 12.125 -9.675781 12.125 -9.84375 L 12.125 -10.03125 C 12.125 -10.65625 11.703125 -11.296875 10.859375 -11.953125 C 10.023438 -12.617188 8.984375 -12.953125 7.734375 -12.953125 C 6.484375 -12.953125 5.351562 -12.457031 4.34375 -11.46875 C 3.34375 -10.488281 2.84375 -9.09375 2.84375 -7.28125 C 2.84375 -5.46875 3.347656 -4.054688 4.359375 -3.046875 C 5.367188 -2.046875 6.550781 -1.546875 7.90625 -1.546875 C 9.375 -1.546875 10.535156 -1.878906 11.390625 -2.546875 C 12.046875 -3.054688 12.53125 -3.570312 12.84375 -4.09375 C 12.945312 -4.300781 13.070312 -4.34375 13.21875 -4.21875 Z M 14.078125 -3.65625 "/></g></g></g><g fill="rgb(13.328552%, 15.689087%, 19.219971%)" fill-opacity="1"><g transform="translate(89.753705, 44.492143)"><g><path d="M 4.890625 0 L 1.03125 0 C 0.851562 0 0.765625 -0.0820312 0.765625 -0.25 L 0.765625 -1.109375 C 0.765625 -1.273438 0.851562 -1.359375 1.03125 -1.359375 L 2.140625 -1.359375 L 2.140625 -8.578125 L 1.03125 -8.578125 C 0.851562 -8.578125 0.765625 -8.660156 0.765625 -8.828125 L 0.765625 -9.6875 C 0.765625 -9.851562 0.851562 -9.9375 1.03125 -9.9375 L 3.390625 -9.9375 C 3.566406 -9.9375 3.65625 -9.851562 3.65625 -9.6875 L 3.65625 -7.171875 L 3.71875 -7.171875 C 3.757812 -7.378906 3.898438 -7.671875 4.140625 -8.046875 C 4.378906 -8.429688 4.644531 -8.742188 4.9375 -8.984375 C 5.226562 -9.234375 5.644531 -9.457031 6.1875 -9.65625 C 6.726562 -9.863281 7.34375 -9.96875 8.03125 -9.96875 C 8.207031 -9.96875 8.296875 -9.878906 8.296875 -9.703125 L 8.296875 -8.640625 C 8.296875 -8.460938 8.207031 -8.375 8.03125 -8.375 L 7.609375 -8.375 C 6.453125 -8.375 5.53125 -8.003906 4.84375 -7.265625 C 4.15625 -6.523438 3.8125 -5.6875 3.8125 -4.75 L 3.8125 -1.359375 L 4.890625 -1.359375 C 5.054688 -1.359375 5.140625 -1.273438 5.140625 -1.109375 L 5.140625 -0.25 C 5.140625 -0.0820312 5.054688 0 4.890625 0 Z M 4.890625 0 "/></g></g></g><g fill="rgb(13.328552%, 15.689087%, 19.219971%)" fill-opacity="1"><g transform="translate(98.249352, 44.492143)"><g><path d="M 10.671875 0 L 8.921875 0 C 8.347656 0 8.0625 -0.28125 8.0625 -0.84375 L 8.0625 -1.875 L 8.015625 -1.875 C 7.035156 -0.519531 5.722656 0.15625 4.078125 0.15625 C 3.109375 0.15625 2.3125 -0.09375 1.6875 -0.59375 C 1.070312 -1.101562 0.765625 -1.785156 0.765625 -2.640625 C 0.765625 -3.742188 1.242188 -4.554688 2.203125 -5.078125 C 3.171875 -5.597656 4.492188 -5.859375 6.171875 -5.859375 L 7.875 -5.859375 L 7.875 -6.09375 C 7.875 -7.78125 7 -8.625 5.25 -8.625 C 4.425781 -8.625 3.832031 -8.546875 3.46875 -8.390625 C 3.101562 -8.234375 2.84375 -8.109375 2.6875 -8.015625 C 2.539062 -7.921875 2.425781 -7.847656 2.34375 -7.796875 C 2.132812 -7.628906 1.984375 -7.613281 1.890625 -7.75 L 1.328125 -8.453125 C 1.234375 -8.566406 1.25 -8.675781 1.375 -8.78125 C 1.601562 -9.070312 2.070312 -9.363281 2.78125 -9.65625 C 3.5 -9.9375 4.34375 -10.078125 5.3125 -10.078125 C 8.132812 -10.078125 9.546875 -8.726562 9.546875 -6.03125 L 9.546875 -1.359375 L 10.671875 -1.359375 C 10.835938 -1.359375 10.921875 -1.273438 10.921875 -1.109375 L 10.921875 -0.25 C 10.921875 -0.0820312 10.835938 0 10.671875 0 Z M 7.875 -4.640625 L 6.28125 -4.640625 C 5.5 -4.640625 4.851562 -4.597656 4.34375 -4.515625 C 3.832031 -4.441406 3.394531 -4.269531 3.03125 -4 C 2.675781 -3.726562 2.5 -3.359375 2.5 -2.890625 C 2.5 -2.421875 2.691406 -2.03125 3.078125 -1.71875 C 3.460938 -1.414062 3.960938 -1.265625 4.578125 -1.265625 C 5.890625 -1.265625 6.988281 -1.847656 7.875 -3.015625 Z M 7.875 -4.640625 "/></g></g></g><g fill="rgb(13.328552%, 15.689087%, 19.219971%)" fill-opacity="1"><g transform="translate(109.953567, 44.492143)"><g><path d="M 5.625 0 L 1.0625 0 C 0.894531 0 0.8125 -0.0820312 0.8125 -0.25 L 0.8125 -1.109375 C 0.8125 -1.273438 0.894531 -1.359375 1.0625 -1.359375 L 2.1875 -1.359375 L 2.1875 -8.578125 L 1.03125 -8.578125 C 0.851562 -8.578125 0.765625 -8.660156 0.765625 -8.828125 L 0.765625 -9.6875 C 0.765625 -9.851562 0.851562 -9.9375 1.03125 -9.9375 L 2.1875 -9.9375 L 2.1875 -11.1875 C 2.1875 -12.300781 2.46875 -13.148438 3.03125 -13.734375 C 3.601562 -14.316406 4.40625 -14.609375 5.4375 -14.609375 C 6.1875 -14.609375 6.863281 -14.34375 7.46875 -13.8125 C 7.550781 -13.738281 7.59375 -13.671875 7.59375 -13.609375 C 7.59375 -13.554688 7.570312 -13.507812 7.53125 -13.46875 L 7.046875 -12.84375 C 6.921875 -12.71875 6.804688 -12.703125 6.703125 -12.796875 C 6.378906 -13.054688 5.972656 -13.1875 5.484375 -13.1875 C 5.003906 -13.1875 4.613281 -13.015625 4.3125 -12.671875 C 4.007812 -12.328125 3.859375 -11.820312 3.859375 -11.15625 L 3.859375 -9.9375 L 6.4375 -9.9375 C 6.613281 -9.9375 6.703125 -9.851562 6.703125 -9.6875 L 6.703125 -8.828125 C 6.703125 -8.660156 6.613281 -8.578125 6.4375 -8.578125 L 3.859375 -8.578125 L 3.859375 -1.359375 L 5.625 -1.359375 C 5.789062 -1.359375 5.875 -1.273438 5.875 -1.109375 L 5.875 -0.25 C 5.875 -0.0820312 5.789062 0 5.625 0 Z M 5.625 0 "/></g></g></g><g fill="rgb(13.328552%, 15.689087%, 19.219971%)" fill-opacity="1"><g transform="translate(117.763106, 44.492143)"><g><path d="M 7.515625 -1.03125 C 7.566406 -0.976562 7.59375 -0.921875 7.59375 -0.859375 C 7.59375 -0.796875 7.550781 -0.722656 7.46875 -0.640625 C 6.875 -0.117188 6.128906 0.140625 5.234375 0.140625 C 4.335938 0.140625 3.601562 -0.148438 3.03125 -0.734375 C 2.46875 -1.316406 2.1875 -2.171875 2.1875 -3.296875 L 2.1875 -8.578125 L 1.046875 -8.578125 C 0.859375 -8.578125 0.765625 -8.664062 0.765625 -8.84375 L 0.765625 -9.671875 C 0.765625 -9.847656 0.859375 -9.9375 1.046875 -9.9375 L 2.1875 -9.9375 L 2.1875 -11.96875 C 2.1875 -12.15625 2.28125 -12.25 2.46875 -12.25 L 3.59375 -12.25 C 3.769531 -12.25 3.859375 -12.15625 3.859375 -11.96875 L 3.859375 -9.9375 L 6.421875 -9.9375 C 6.609375 -9.9375 6.703125 -9.847656 6.703125 -9.671875 L 6.703125 -8.84375 C 6.703125 -8.664062 6.609375 -8.578125 6.421875 -8.578125 L 3.859375 -8.578125 L 3.859375 -3.328125 C 3.859375 -2.660156 4.007812 -2.15625 4.3125 -1.8125 C 4.613281 -1.46875 5.015625 -1.296875 5.515625 -1.296875 C 6.023438 -1.296875 6.40625 -1.421875 6.65625 -1.671875 C 6.789062 -1.796875 6.914062 -1.789062 7.03125 -1.65625 Z M 7.515625 -1.03125 "/></g></g></g><g fill="rgb(13.328552%, 15.689087%, 19.219971%)" fill-opacity="1"><g transform="translate(125.855165, 44.492143)"><g><path d="M 9.65625 0 L 4.953125 0 C 4.773438 0 4.6875 -0.0859375 4.6875 -0.265625 L 4.6875 -1.25 C 4.6875 -1.425781 4.773438 -1.515625 4.953125 -1.515625 L 6.484375 -1.515625 L 6.484375 -12.984375 L 2.671875 -12.984375 L 2.671875 -10.84375 C 2.671875 -10.65625 2.570312 -10.5625 2.375 -10.5625 L 1.25 -10.5625 C 1.0625 -10.5625 0.96875 -10.65625 0.96875 -10.84375 L 0.96875 -14.234375 C 0.96875 -14.410156 1.0625 -14.5 1.25 -14.5 L 13.421875 -14.5 C 13.609375 -14.5 13.703125 -14.410156 13.703125 -14.234375 L 13.703125 -10.84375 C 13.703125 -10.65625 13.609375 -10.5625 13.421875 -10.5625 L 12.28125 -10.5625 C 12.101562 -10.5625 12.015625 -10.65625 12.015625 -10.84375 L 12.015625 -12.984375 L 8.234375 -12.984375 L 8.234375 -1.515625 L 9.65625 -1.515625 C 9.84375 -1.515625 9.9375 -1.425781 9.9375 -1.25 L 9.9375 -0.265625 C 9.9375 -0.0859375 9.84375 0 9.65625 0 Z M 9.65625 0 "/></g></g></g><g fill="rgb(13.328552%, 15.689087%, 19.219971%)" fill-opacity="1"><g transform="translate(140.525803, 44.492143)"><g><path d="M 11.25 0 L 9.484375 0 C 8.910156 0 8.625 -0.28125 8.625 -0.84375 L 8.625 -1.59375 L 8.5625 -1.59375 C 8.007812 -0.4375 6.957031 0.140625 5.40625 0.140625 C 4.332031 0.140625 3.484375 -0.175781 2.859375 -0.8125 C 2.234375 -1.457031 1.910156 -2.3125 1.890625 -3.375 L 1.890625 -8.578125 L 0.75 -8.578125 C 0.582031 -8.578125 0.5 -8.660156 0.5 -8.828125 L 0.5 -9.6875 C 0.5 -9.851562 0.582031 -9.9375 0.75 -9.9375 L 2.6875 -9.9375 C 3.257812 -9.9375 3.546875 -9.648438 3.546875 -9.078125 L 3.546875 -3.78125 C 3.546875 -3 3.734375 -2.390625 4.109375 -1.953125 C 4.492188 -1.523438 5.050781 -1.3125 5.78125 -1.3125 C 6.757812 -1.3125 7.53125 -1.675781 8.09375 -2.40625 C 8.332031 -2.707031 8.453125 -2.914062 8.453125 -3.03125 L 8.453125 -8.578125 L 7.375 -8.578125 C 7.207031 -8.578125 7.125 -8.660156 7.125 -8.828125 L 7.125 -9.6875 C 7.125 -9.851562 7.207031 -9.9375 7.375 -9.9375 L 9.875 -9.9375 C 10.03125 -9.9375 10.109375 -9.851562 10.109375 -9.6875 L 10.109375 -1.359375 L 11.25 -1.359375 C 11.414062 -1.359375 11.5 -1.273438 11.5 -1.109375 L 11.5 -0.25 C 11.5 -0.0820312 11.414062 0 11.25 0 Z M 11.25 0 "/></g></g></g><g fill="rgb(13.328552%, 15.689087%, 19.219971%)" fill-opacity="1"><g transform="translate(152.795059, 44.492143)"><g><path d="M 3.4375 0 L 2.40625 0 C 2.238281 0 2.15625 -0.0820312 2.15625 -0.25 L 2.15625 -13.140625 L 1.03125 -13.140625 C 0.851562 -13.140625 0.765625 -13.222656 0.765625 -13.390625 L 0.765625 -14.25 C 0.765625 -14.414062 0.851562 -14.5 1.03125 -14.5 L 3.515625 -14.5 C 3.691406 -14.5 3.78125 -14.414062 3.78125 -14.25 L 3.78125 -8.875 L 3.71875 -8.09375 L 3.78125 -8.09375 C 4.007812 -8.644531 4.40625 -9.113281 4.96875 -9.5 C 5.53125 -9.882812 6.226562 -10.078125 7.0625 -10.078125 C 8.425781 -10.078125 9.519531 -9.609375 10.34375 -8.671875 C 11.175781 -7.734375 11.59375 -6.5 11.59375 -4.96875 C 11.59375 -3.445312 11.171875 -2.210938 10.328125 -1.265625 C 9.484375 -0.328125 8.390625 0.140625 7.046875 0.140625 C 6.203125 0.140625 5.492188 -0.0546875 4.921875 -0.453125 C 4.359375 -0.847656 3.957031 -1.328125 3.71875 -1.890625 L 3.6875 -1.890625 L 3.6875 -0.25 C 3.6875 -0.0820312 3.601562 0 3.4375 0 Z M 3.734375 -5 C 3.734375 -3.875 4.023438 -2.96875 4.609375 -2.28125 C 5.191406 -1.601562 5.9375 -1.265625 6.84375 -1.265625 C 7.75 -1.265625 8.488281 -1.609375 9.0625 -2.296875 C 9.644531 -2.984375 9.9375 -3.878906 9.9375 -4.984375 C 9.9375 -6.097656 9.640625 -6.988281 9.046875 -7.65625 C 8.453125 -8.320312 7.710938 -8.65625 6.828125 -8.65625 C 5.953125 -8.65625 5.21875 -8.328125 4.625 -7.671875 C 4.03125 -7.015625 3.734375 -6.125 3.734375 -5 Z M 3.734375 -5 "/></g></g></g><g fill="rgb(13.328552%, 15.689087%, 19.219971%)" fill-opacity="1"><g transform="translate(165.165205, 44.492143)"><g><path d="M 9.75 -4.765625 L 2.484375 -4.765625 C 2.535156 -3.648438 2.882812 -2.785156 3.53125 -2.171875 C 4.1875 -1.566406 4.925781 -1.265625 5.75 -1.265625 C 6.570312 -1.265625 7.273438 -1.441406 7.859375 -1.796875 C 8.441406 -2.148438 8.835938 -2.492188 9.046875 -2.828125 C 9.148438 -2.960938 9.269531 -2.984375 9.40625 -2.890625 L 9.953125 -2.34375 C 10.035156 -2.257812 10.078125 -2.1875 10.078125 -2.125 C 10.078125 -2.0625 10.046875 -1.984375 9.984375 -1.890625 C 9.921875 -1.796875 9.796875 -1.648438 9.609375 -1.453125 C 9.421875 -1.253906 9.15625 -1.023438 8.8125 -0.765625 C 8.46875 -0.515625 8.019531 -0.300781 7.46875 -0.125 C 6.925781 0.0507812 6.347656 0.140625 5.734375 0.140625 C 4.316406 0.140625 3.132812 -0.320312 2.1875 -1.25 C 1.238281 -2.175781 0.765625 -3.421875 0.765625 -4.984375 C 0.765625 -6.554688 1.234375 -7.796875 2.171875 -8.703125 C 3.117188 -9.617188 4.273438 -10.078125 5.640625 -10.078125 C 7.003906 -10.078125 8.078125 -9.632812 8.859375 -8.75 C 9.640625 -7.863281 10.03125 -6.675781 10.03125 -5.1875 C 10.03125 -5.132812 10.03125 -5.082031 10.03125 -5.03125 C 10.03125 -4.851562 9.9375 -4.765625 9.75 -4.765625 Z M 8.359375 -6 C 8.316406 -6.832031 8.050781 -7.492188 7.5625 -7.984375 C 7.082031 -8.484375 6.4375 -8.734375 5.625 -8.734375 C 4.820312 -8.734375 4.128906 -8.503906 3.546875 -8.046875 C 2.972656 -7.597656 2.632812 -6.914062 2.53125 -6 Z M 8.359375 -6 "/></g></g></g></svg>